<svg width="83" height="24" viewBox="0 0 83 24" fill="none" xmlns="http://www.w3.org/2000/svg">
<path d="M11.224 23C10.9893 23 10.84 22.8933 10.776 22.68L7.544 13.848C7.50133 13.7627 7.448 13.72 7.384 13.72H5.368C5.26133 13.72 5.208 13.7733 5.208 13.88V22.616C5.208 22.7227 5.16533 22.8187 5.08 22.904C5.016 22.968 4.93067 23 4.824 23H1.08C0.973333 23 0.877333 22.968 0.792 22.904C0.728 22.8187 0.696 22.7227 0.696 22.616V0.983999C0.696 0.877333 0.728 0.791999 0.792 0.727999C0.877333 0.642665 0.973333 0.599998 1.08 0.599998H8.888C10.1467 0.599998 11.2667 0.887999 12.248 1.464C13.2293 2.01867 13.9867 2.808 14.52 3.832C15.0533 4.856 15.32 6.02933 15.32 7.352C15.32 8.71733 15.0213 9.90133 14.424 10.904C13.8267 11.9067 12.984 12.6533 11.896 13.144C11.7893 13.1867 11.7573 13.2613 11.8 13.368L15.448 22.552C15.4693 22.5947 15.48 22.648 15.48 22.712C15.48 22.904 15.3627 23 15.128 23H11.224ZM5.368 4.472C5.26133 4.472 5.208 4.52533 5.208 4.632V10.104C5.208 10.2107 5.26133 10.264 5.368 10.264H8.152C8.94133 10.264 9.58133 10.008 10.072 9.496C10.5627 8.96267 10.808 8.25867 10.808 7.384C10.808 6.488 10.5627 5.784 10.072 5.272C9.58133 4.73867 8.94133 4.472 8.152 4.472H5.368ZM25.239 23.256C23.7883 23.256 22.5083 22.9573 21.399 22.36C20.2897 21.7627 19.4257 20.9307 18.807 19.864C18.2097 18.776 17.911 17.528 17.911 16.12V0.983999C17.911 0.877333 17.943 0.791999 18.007 0.727999C18.0923 0.642665 18.1883 0.599998 18.295 0.599998H22.039C22.1457 0.599998 22.231 0.642665 22.295 0.727999C22.3803 0.791999 22.423 0.877333 22.423 0.983999V16.344C22.423 17.2613 22.679 17.9973 23.191 18.552C23.703 19.1067 24.3857 19.384 25.239 19.384C26.0923 19.384 26.775 19.1067 27.287 18.552C27.799 17.9973 28.055 17.2613 28.055 16.344V0.983999C28.055 0.877333 28.087 0.791999 28.151 0.727999C28.2363 0.642665 28.3323 0.599998 28.439 0.599998H32.183C32.2897 0.599998 32.375 0.642665 32.439 0.727999C32.5243 0.791999 32.567 0.877333 32.567 0.983999V16.12C32.567 17.528 32.2577 18.776 31.639 19.864C31.0417 20.9307 30.1883 21.7627 29.079 22.36C27.9697 22.9573 26.6897 23.256 25.239 23.256ZM36.1738 23C36.0671 23 35.9711 22.968 35.8858 22.904C35.8218 22.8187 35.7898 22.7227 35.7898 22.616V0.983999C35.7898 0.877333 35.8218 0.791999 35.8858 0.727999C35.9711 0.642665 36.0671 0.599998 36.1738 0.599998H39.9178C40.0244 0.599998 40.1098 0.642665 40.1738 0.727999C40.2591 0.791999 40.3018 0.877333 40.3018 0.983999V18.968C40.3018 19.0747 40.3551 19.128 40.4618 19.128H49.0378C49.1444 19.128 49.2298 19.1707 49.2938 19.256C49.3791 19.32 49.4218 19.4053 49.4218 19.512V22.616C49.4218 22.7227 49.3791 22.8187 49.2938 22.904C49.2298 22.968 49.1444 23 49.0378 23H36.1738ZM65.3905 4.088C65.3905 4.19467 65.3478 4.29067 65.2625 4.376C65.1985 4.44 65.1132 4.472 65.0065 4.472H56.4305C56.3238 4.472 56.2705 4.52533 56.2705 4.632V9.624C56.2705 9.73067 56.3238 9.784 56.4305 9.784H61.7745C61.8812 9.784 61.9665 9.82667 62.0305 9.912C62.1158 9.976 62.1585 10.0613 62.1585 10.168V13.272C62.1585 13.3787 62.1158 13.4747 62.0305 13.56C61.9665 13.624 61.8812 13.656 61.7745 13.656H56.4305C56.3238 13.656 56.2705 13.7093 56.2705 13.816V18.968C56.2705 19.0747 56.3238 19.128 56.4305 19.128H65.0065C65.1132 19.128 65.1985 19.1707 65.2625 19.256C65.3478 19.32 65.3905 19.4053 65.3905 19.512V22.616C65.3905 22.7227 65.3478 22.8187 65.2625 22.904C65.1985 22.968 65.1132 23 65.0065 23H52.1425C52.0358 23 51.9398 22.968 51.8545 22.904C51.7905 22.8187 51.7585 22.7227 51.7585 22.616V0.983999C51.7585 0.877333 51.7905 0.791999 51.8545 0.727999C51.9398 0.642665 52.0358 0.599998 52.1425 0.599998H65.0065C65.1132 0.599998 65.1985 0.642665 65.2625 0.727999C65.3478 0.791999 65.3905 0.877333 65.3905 0.983999V4.088ZM74.8223 23.256C73.3503 23.256 72.0596 23 70.9503 22.488C69.8409 21.9547 68.9769 21.2187 68.3583 20.28C67.7609 19.32 67.4622 18.2213 67.4622 16.984V16.152C67.4622 16.0453 67.4943 15.96 67.5583 15.896C67.6436 15.8107 67.7396 15.768 67.8463 15.768H71.5263C71.6329 15.768 71.7183 15.8107 71.7823 15.896C71.8676 15.96 71.9103 16.0453 71.9103 16.152V16.76C71.9103 17.5067 72.1876 18.136 72.7423 18.648C73.2969 19.1387 74.0436 19.384 74.9823 19.384C75.8143 19.384 76.4436 19.1707 76.8703 18.744C77.3183 18.3173 77.5423 17.7733 77.5423 17.112C77.5423 16.6213 77.4036 16.2053 77.1263 15.864C76.8489 15.5013 76.4543 15.1707 75.9423 14.872C75.4516 14.552 74.6836 14.1253 73.6383 13.592C72.3583 12.952 71.3129 12.3547 70.5023 11.8C69.6916 11.2453 68.9983 10.5307 68.4223 9.656C67.8463 8.78133 67.5583 7.72533 67.5583 6.488C67.5583 5.25067 67.8463 4.17333 68.4223 3.256C69.0196 2.31733 69.8516 1.60267 70.9183 1.112C71.9849 0.6 73.2009 0.344 74.5663 0.344C75.9956 0.344 77.2649 0.621333 78.3743 1.176C79.4836 1.70933 80.3476 2.46667 80.9663 3.448C81.5849 4.42933 81.8943 5.56 81.8943 6.84V7.48C81.8943 7.58667 81.8516 7.68267 81.7663 7.768C81.7023 7.832 81.6169 7.864 81.5103 7.864H77.8303C77.7236 7.864 77.6276 7.832 77.5423 7.768C77.4783 7.68267 77.4463 7.58667 77.4463 7.48V6.904C77.4463 6.136 77.1796 5.496 76.6463 4.984C76.1129 4.472 75.3876 4.216 74.4703 4.216C73.7023 4.216 73.0943 4.41867 72.6463 4.824C72.2196 5.208 72.0063 5.752 72.0063 6.456C72.0063 6.94667 72.1343 7.37333 72.3903 7.736C72.6463 8.09867 73.0409 8.45067 73.5743 8.792C74.1076 9.112 74.9183 9.53867 76.0063 10.072L76.6783 10.456C77.9156 11.1387 78.8756 11.736 79.5583 12.248C80.2623 12.7387 80.8489 13.368 81.3183 14.136C81.7876 14.904 82.0223 15.832 82.0223 16.92C82.0223 18.8613 81.3609 20.408 80.0383 21.56C78.7369 22.6907 76.9983 23.256 74.8223 23.256Z" fill="#3B4262"/>
</svg>
